<svg xmlns="http://www.w3.org/2000/svg" viewBox="0 0 600 300"><path d="M505.8,247.5a3.54,3.54,0,0,1-3.5,3.5H234.5a3.54,3.54,0,0,1-3.5-3.5V199.2a3.54,3.54,0,0,1,3.5-3.5H502.4a3.54,3.54,0,0,1,3.5,3.5l-.1,48.3Z" style="fill:#e46f78"/><path d="M457.5,79.1a50,50,0,1,0,50,50A50,50,0,0,0,457.5,79.1Zm0,80a30,30,0,1,1,30-30A30,30,0,0,1,457.5,159.1Z" style="fill:#8f8f8f"/><path d="M352.5,79.1a50,50,0,1,0,50,50A50,50,0,0,0,352.5,79.1Zm0,80a30,30,0,1,1,30-30A30,30,0,0,1,352.5,159.1Z" style="fill:#8f8f8f"/><path d="M142.5,79.1a50,50,0,1,0,50,50A50,50,0,0,0,142.5,79.1Zm0,80a30,30,0,1,1,30-30A30,30,0,0,1,142.5,159.1Z" style="fill:#714b67"/><path d="M287.5,49a10,10,0,0,0-10,10V89a50,50,0,1,0,20,40.1h0V59A10,10,0,0,0,287.5,49Zm-40,110a30,30,0,1,1,30-30A30,30,0,0,1,247.5,159Z" style="fill:#8f8f8f"/><g style="isolation:isolate"><path d="M252.7,231.7H263v2.7H249.6V210.8h3.2v20.9Z" style="fill:#fff"/><path d="M272.1,217.4a8.68,8.68,0,0,1,2.8.5,5.41,5.41,0,0,1,2.2,1.5,5.94,5.94,0,0,1,1.4,2.3,10.23,10.23,0,0,1,.5,3.2c0,.5,0,.8-.1.9s-.3.2-.6.2H267.2a11.08,11.08,0,0,0,.4,2.8,6.44,6.44,0,0,0,1.1,2,6.1,6.1,0,0,0,1.6,1.2,4.92,4.92,0,0,0,2.1.4,5.41,5.41,0,0,0,1.9-.3c.5-.2,1-.4,1.4-.6a8.79,8.79,0,0,0,1-.6,1.33,1.33,0,0,1,.7-.3.86.86,0,0,1,.6.3l.8,1.1a6.89,6.89,0,0,1-1.3,1.1,8,8,0,0,1-1.6.8,12.09,12.09,0,0,1-1.8.5,11,11,0,0,1-1.8.2,8.29,8.29,0,0,1-3.2-.6,7.39,7.39,0,0,1-2.5-1.7,8.75,8.75,0,0,1-1.7-2.8,11.22,11.22,0,0,1-.6-3.8,11.42,11.42,0,0,1,.5-3.3,9.34,9.34,0,0,1,1.5-2.6,7.39,7.39,0,0,1,2.5-1.7A7,7,0,0,1,272.1,217.4Zm0,2.2a4.46,4.46,0,0,0-3.3,1.2,6,6,0,0,0-1.5,3.4h9.1a5.82,5.82,0,0,0-.3-1.9,5.3,5.3,0,0,0-.8-1.5,6.42,6.42,0,0,0-1.3-1A3.85,3.85,0,0,0,272.1,219.6Z" style="fill:#fff"/><path d="M295,234.4h-1.3a1.48,1.48,0,0,1-.7-.1.6.6,0,0,1-.3-.6l-.3-1.6a12.67,12.67,0,0,1-1.3,1.1,9.13,9.13,0,0,1-1.3.8,8.06,8.06,0,0,1-3.2.7,5.23,5.23,0,0,1-1.8-.3,5.3,5.3,0,0,1-1.5-.8,3.59,3.59,0,0,1-1-1.4,5.92,5.92,0,0,1-.4-2,4.14,4.14,0,0,1,.5-1.9,4.08,4.08,0,0,1,1.8-1.6,16.58,16.58,0,0,1,3.2-1.2,21.43,21.43,0,0,1,4.8-.5v-1.3a5.1,5.1,0,0,0-.8-3,3,3,0,0,0-2.5-1,4.84,4.84,0,0,0-1.8.3c-.5.2-.9.4-1.3.6a3.49,3.49,0,0,0-.9.6,1.14,1.14,0,0,1-.8.3.76.76,0,0,1-.5-.2c-.1-.1-.3-.2-.4-.4l-.5-.9a8.32,8.32,0,0,1,3-2,9.92,9.92,0,0,1,3.5-.7,6.55,6.55,0,0,1,2.5.5,4.63,4.63,0,0,1,1.8,1.3,4.9,4.9,0,0,1,1.1,2,7.1,7.1,0,0,1,.4,2.6v10.7Zm-7.6-1.8a5.9,5.9,0,0,0,1.4-.2c.4-.1.8-.3,1.2-.4a3.38,3.38,0,0,0,1.1-.7c.3-.3.7-.6,1-.9V227a15.84,15.84,0,0,0-3.4.3,10.49,10.49,0,0,0-2.3.7,3.45,3.45,0,0,0-1.3,1,2,2,0,0,0-.4,1.3,3.59,3.59,0,0,0,.2,1.1,1.56,1.56,0,0,0,.6.8,1.27,1.27,0,0,0,.9.4A3.28,3.28,0,0,1,287.4,232.6Z" style="fill:#fff"/><path d="M299.5,234.4V217.7h1.7a1.45,1.45,0,0,1,.7.2c.2.1.2.3.2.6l.2,2.6a7.47,7.47,0,0,1,2.1-2.7,4.36,4.36,0,0,1,3-1,5.07,5.07,0,0,1,1.3.2,3,3,0,0,1,1,.4l-.4,2.2c-.1.3-.2.4-.5.4a2.54,2.54,0,0,1-.7-.2,4.44,4.44,0,0,0-1.3-.2,3.92,3.92,0,0,0-2.6.9,6.21,6.21,0,0,0-1.7,2.6v10.6l-3,.1Z" style="fill:#fff"/><path d="M312.8,234.4V217.7h1.7a.76.76,0,0,1,.8.6l.2,1.8a7.21,7.21,0,0,1,2.4-1.9,7.45,7.45,0,0,1,3.1-.7,6,6,0,0,1,2.4.5,3.71,3.71,0,0,1,1.7,1.3,6.44,6.44,0,0,1,1.1,2,10.13,10.13,0,0,1,.4,2.6v10.6h-2.9V223.9a4.2,4.2,0,0,0-.9-2.9,3.25,3.25,0,0,0-2.6-1,4.75,4.75,0,0,0-2.4.6,8.27,8.27,0,0,0-2.1,1.7v12.3h-2.9v-.2Z" style="fill:#fff"/><path d="M335,212.4a1.88,1.88,0,0,1-.2.8,3,3,0,0,1-.5.7,4.23,4.23,0,0,1-.7.5,2.35,2.35,0,0,1-.8.2,1.88,1.88,0,0,1-.8-.2,3,3,0,0,1-.7-.5,4.23,4.23,0,0,1-.5-.7,1.7,1.7,0,0,1,0-1.6,1.79,1.79,0,0,1,.5-.7,4.23,4.23,0,0,1,.7-.5,1.7,1.7,0,0,1,1.6,0,1.79,1.79,0,0,1,.7.5,4.23,4.23,0,0,1,.5.7A1.2,1.2,0,0,1,335,212.4Zm-.6,5.3v16.7h-2.9V217.7Z" style="fill:#fff"/><path d="M339.6,234.4V217.7h1.7a.76.76,0,0,1,.8.6l.2,1.8a7.21,7.21,0,0,1,2.4-1.9,7.45,7.45,0,0,1,3.1-.7,6,6,0,0,1,2.4.5,3.71,3.71,0,0,1,1.7,1.3,6.44,6.44,0,0,1,1.1,2,10.13,10.13,0,0,1,.4,2.6v10.6h-2.9V223.9a4.2,4.2,0,0,0-.9-2.9,3.25,3.25,0,0,0-2.6-1,4.75,4.75,0,0,0-2.4.6,8.27,8.27,0,0,0-2.1,1.7v12.3h-2.9v-.2Z" style="fill:#fff"/><path d="M363.5,217.4a12.31,12.31,0,0,1,2,.2,8.65,8.65,0,0,1,1.7.7h4.5v1.1c0,.4-.2.6-.7.7l-1.9.3a4.75,4.75,0,0,1,.6,2.4,5.09,5.09,0,0,1-.5,2.2,4.31,4.31,0,0,1-1.3,1.7,6.44,6.44,0,0,1-2,1.1,6.9,6.9,0,0,1-2.5.4,7.8,7.8,0,0,1-2.2-.3,2.85,2.85,0,0,0-.8.7,1.33,1.33,0,0,0-.3.8,1.05,1.05,0,0,0,.5.9,3.2,3.2,0,0,0,1.3.5,9.72,9.72,0,0,0,1.8.1h2.1a14.92,14.92,0,0,1,2.1.2,4.78,4.78,0,0,1,1.8.6,3.74,3.74,0,0,1,1.3,1.2,3.56,3.56,0,0,1,.5,1.9,5.37,5.37,0,0,1-.5,2.1,6.55,6.55,0,0,1-1.5,1.8A8.42,8.42,0,0,1,367,240a11.42,11.42,0,0,1-3.3.5,10.38,10.38,0,0,1-3.2-.4,7,7,0,0,1-2.3-1,4.66,4.66,0,0,1-1.4-1.4,3.37,3.37,0,0,1-.5-1.7,3.23,3.23,0,0,1,.8-2.1,5.23,5.23,0,0,1,2.2-1.4,2.44,2.44,0,0,1-1.1-.9,2.41,2.41,0,0,1-.4-1.5,1.7,1.7,0,0,1,.1-.7,3,3,0,0,1,.4-.8,2.34,2.34,0,0,1,.7-.7l.9-.6a5.5,5.5,0,0,1-1.9-1.8,5.68,5.68,0,0,1-.7-2.7,5.09,5.09,0,0,1,.5-2.2,5.5,5.5,0,0,1,1.3-1.7,6.44,6.44,0,0,1,2-1.1A6.37,6.37,0,0,1,363.5,217.4Zm5.2,17.8a1.49,1.49,0,0,0-.3-1,1.46,1.46,0,0,0-.9-.6c-.4-.1-.9-.2-1.4-.3a8.6,8.6,0,0,0-1.6-.1h-1.7a8.81,8.81,0,0,1-1.7-.2,5.83,5.83,0,0,0-1.5,1.1,2,2,0,0,0-.6,1.5,1.69,1.69,0,0,0,.3,1,2.36,2.36,0,0,0,.9.8,11.64,11.64,0,0,0,1.5.6,6.82,6.82,0,0,0,2.1.2,12.48,12.48,0,0,0,2.1-.2,5.94,5.94,0,0,0,1.6-.6,3.18,3.18,0,0,0,1-1A3.73,3.73,0,0,0,368.7,235.2Zm-5.2-9a7.77,7.77,0,0,0,1.6-.2,3,3,0,0,0,1.1-.7,4.13,4.13,0,0,0,.7-1.1,3.18,3.18,0,0,0,.2-1.4,3.24,3.24,0,0,0-.9-2.4,4.5,4.5,0,0,0-5.4,0,3.24,3.24,0,0,0-.9,2.4,6.75,6.75,0,0,0,.2,1.4,3,3,0,0,0,1.8,1.8A3.9,3.9,0,0,0,363.5,226.2Z" style="fill:#fff"/><path d="M385.1,225.5v8.8h-3.2V210.7h7a14.79,14.79,0,0,1,3.9.5,5.94,5.94,0,0,1,2.7,1.5,5.33,5.33,0,0,1,1.6,2.3,9.43,9.43,0,0,1,.5,3,7.31,7.31,0,0,1-.6,3,6.6,6.6,0,0,1-1.7,2.4,6.9,6.9,0,0,1-2.8,1.5,11.22,11.22,0,0,1-3.8.6Zm0-2.5h3.8a6.05,6.05,0,0,0,2.4-.4,5.24,5.24,0,0,0,1.8-1,4.57,4.57,0,0,0,1.1-1.6,6.47,6.47,0,0,0,.4-2,4.51,4.51,0,0,0-1.4-3.5,6.19,6.19,0,0,0-4.2-1.3h-3.8l-.1,9.8Z" style="fill:#fff"/><path d="M412.8,234.4h-1.3a1.48,1.48,0,0,1-.7-.1.6.6,0,0,1-.3-.6l-.3-1.6a12.67,12.67,0,0,1-1.3,1.1,9.13,9.13,0,0,1-1.3.8,8.06,8.06,0,0,1-3.2.7,5.23,5.23,0,0,1-1.8-.3,5.3,5.3,0,0,1-1.5-.8,3.59,3.59,0,0,1-1-1.4,5.92,5.92,0,0,1-.4-2,4.14,4.14,0,0,1,.5-1.9,4.08,4.08,0,0,1,1.8-1.6,16.58,16.58,0,0,1,3.2-1.2,21.43,21.43,0,0,1,4.8-.5v-1.3a5.1,5.1,0,0,0-.8-3,2.92,2.92,0,0,0-2.5-1,4.84,4.84,0,0,0-1.8.3c-.5.2-.9.4-1.3.6a3.49,3.49,0,0,0-.9.6,1.33,1.33,0,0,1-.8.3.76.76,0,0,1-.5-.2c-.1-.1-.3-.2-.4-.4l-.5-.9a8.32,8.32,0,0,1,3-2,9.92,9.92,0,0,1,3.5-.7,6.55,6.55,0,0,1,2.5.5,4.63,4.63,0,0,1,1.8,1.3,4.9,4.9,0,0,1,1.1,2,7.1,7.1,0,0,1,.4,2.6v10.7Zm-7.7-1.8a5.9,5.9,0,0,0,1.4-.2c.4-.1.8-.3,1.2-.4a6.73,6.73,0,0,0,1.1-.7c.3-.3.7-.6,1-.9V227a15.84,15.84,0,0,0-3.4.3,10.49,10.49,0,0,0-2.3.7,3.45,3.45,0,0,0-1.3,1,2,2,0,0,0-.4,1.3,3.59,3.59,0,0,0,.2,1.1,1.56,1.56,0,0,0,.6.8,1.27,1.27,0,0,0,.9.4Z" style="fill:#fff"/><path d="M417.2,234.4V217.7h1.7a1.45,1.45,0,0,1,.7.2c.2.1.2.3.2.6l.2,2.6a7.47,7.47,0,0,1,2.1-2.7,4.91,4.91,0,0,1,3-1,5.07,5.07,0,0,1,1.3.2,3,3,0,0,1,1,.4l-.4,2.2c-.1.3-.2.4-.5.4a2.54,2.54,0,0,1-.7-.2,4.44,4.44,0,0,0-1.3-.2,3.92,3.92,0,0,0-2.6.9,6.21,6.21,0,0,0-1.7,2.6v10.6l-3,.1Z" style="fill:#fff"/><path d="M435.6,234.7a4.08,4.08,0,0,1-3-1.1,4.42,4.42,0,0,1-1.1-3.2V220.2h-2a.52.52,0,0,1-.4-.2.76.76,0,0,1-.2-.5v-1.2l2.7-.3.7-5.2a.52.52,0,0,1,.2-.4.76.76,0,0,1,.5-.2h1.5V218h4.8v2.1h-4.8v10a2.54,2.54,0,0,0,.5,1.6,1.54,1.54,0,0,0,1.3.5,2,2,0,0,0,.8-.1l.6-.3a1.38,1.38,0,0,0,.4-.3.37.37,0,0,1,.3-.1c.2,0,.3.1.4.3l.9,1.4a5.44,5.44,0,0,1-1.8,1.1A6.82,6.82,0,0,1,435.6,234.7Z" style="fill:#fff"/><path d="M442.8,234.4V217.7h1.7a.76.76,0,0,1,.8.6l.2,1.8a7.21,7.21,0,0,1,2.4-1.9,7.45,7.45,0,0,1,3.1-.7,6,6,0,0,1,2.4.5,3.71,3.71,0,0,1,1.7,1.3,6.44,6.44,0,0,1,1.1,2,10.13,10.13,0,0,1,.4,2.6v10.6h-2.9V223.9a4.2,4.2,0,0,0-.9-2.9,3.25,3.25,0,0,0-2.6-1,4.75,4.75,0,0,0-2.4.6,8.27,8.27,0,0,0-2.1,1.7v12.3h-2.9v-.2Z" style="fill:#fff"/><path d="M467.8,217.4a8.68,8.68,0,0,1,2.8.5,5.41,5.41,0,0,1,2.2,1.5,5.94,5.94,0,0,1,1.4,2.3,10.23,10.23,0,0,1,.5,3.2c0,.5,0,.8-.1.9s-.3.2-.6.2H462.9a11.08,11.08,0,0,0,.4,2.8,6.44,6.44,0,0,0,1.1,2A6.1,6.1,0,0,0,466,232a4.92,4.92,0,0,0,2.1.4,5.41,5.41,0,0,0,1.9-.3c.5-.2,1-.4,1.4-.6a8.79,8.79,0,0,0,1-.6,1.33,1.33,0,0,1,.7-.3.86.86,0,0,1,.6.3l.8,1.1a6.89,6.89,0,0,1-1.3,1.1,8,8,0,0,1-1.6.8,12.09,12.09,0,0,1-1.8.5,11,11,0,0,1-1.8.2,8.29,8.29,0,0,1-3.2-.6,7.39,7.39,0,0,1-2.5-1.7,8.75,8.75,0,0,1-1.7-2.8,11.22,11.22,0,0,1-.6-3.8,11.42,11.42,0,0,1,.5-3.3,9.34,9.34,0,0,1,1.5-2.6,7.39,7.39,0,0,1,2.5-1.7A7.25,7.25,0,0,1,467.8,217.4Zm0,2.2a4.46,4.46,0,0,0-3.3,1.2,6,6,0,0,0-1.5,3.4h9.1a5.82,5.82,0,0,0-.3-1.9,5.3,5.3,0,0,0-.8-1.5,6.42,6.42,0,0,0-1.3-1A3.85,3.85,0,0,0,467.8,219.6Z" style="fill:#fff"/><path d="M478.5,234.4V217.7h1.7a1.45,1.45,0,0,1,.7.2c.2.1.2.3.2.6l.2,2.6a7.47,7.47,0,0,1,2.1-2.7,4.91,4.91,0,0,1,3-1,5.07,5.07,0,0,1,1.3.2,3,3,0,0,1,1,.4l-.4,2.2c-.1.3-.2.4-.5.4a2.54,2.54,0,0,1-.7-.2,4.44,4.44,0,0,0-1.3-.2,3.92,3.92,0,0,0-2.6.9,6.21,6.21,0,0,0-1.7,2.6v10.6l-3,.1Z" style="fill:#fff"/></g></svg>
