<svg id="uuid-ff42c8ed-6898-42b0-baa9-8d77a2fdd180" xmlns="http://www.w3.org/2000/svg" width="228.17" height="120" viewBox="0 0 228.17 120"><path d="M76.39,86.93h19.2c9.55,0,14.18,3.85,14.18,10.33v.22c0,6.92-5.02,10.55-13.3,10.55h-20.08v-21.1Zm0-31.86h17.43c7.78,0,12.11,3.74,12.11,9.78v.22c0,7.03-5.22,10.44-13,10.44h-16.55v-20.44ZM13.79,38.59v-.21c0-14.5,10.37-26.33,25.24-26.33s25.45,12.05,25.45,26.54v.21c0,14.5-10.37,26.22-25.23,26.22s-25.45-11.94-25.45-26.44M38.94,0C16.11,.16,0,17.68,0,38.59v.21C0,59.8,16.04,77.18,39.03,77.18c9.26,.12,18.27-3.02,25.45-8.86v51.68h31.91c15.36,0,25.5-7.36,25.5-21.1v-.22c0-10.44-5.61-15.6-13.69-18.68,5.12-2.97,9.85-7.91,9.85-17.14v-.22c.15-4.68-1.51-9.25-4.63-12.74-3.94-4.4-10.14-6.81-18.02-6.81h-17.37c.17-1.49,.25-3,.25-4.5v-.21C78.27,17.46,62.37,.15,39.55,0h-.62Z" style="fill:#a42135;"></path><path id="uuid-8e62d6d2-ed3b-4d97-9ca5-6e13fd7651f2" d="M66.82,62.22c-1.19,.12-2.24-.75-2.36-1.93,0-.04,0-.09,0-.13v-.04c.07-1.1,.83-2.04,1.89-2.35l3.16,3.21c-.7,.74-1.66,1.19-2.68,1.23m.36-6.73c-.63-.52-1.02-1.28-1.08-2.1v-.04c-.04-.9,.65-1.66,1.55-1.7,.05,0,.1,0,.15,0,.84-.04,1.56,.61,1.6,1.46,0,.05,0,.09,0,.14v.04c0,1.01-.77,1.68-2.23,2.2m5.62,8.88l1.87-1.34-2.25-2.27c.74-1.01,1.38-2.09,1.93-3.21l-1.89-.99c-.44,.95-.95,1.86-1.52,2.73l-2.43-2.47c1.89-.71,3.12-1.82,3.12-3.68v-.04c-.04-1.93-1.64-3.47-3.57-3.43-.07,0-.14,0-.2,.01-2.54,0-4.08,1.66-4.08,3.56v.04c.03,1.09,.45,2.14,1.18,2.95-1.95,.83-3.02,2.14-3.02,3.96v.04c0,2.45,1.99,4.05,4.65,4.05,1.63-.02,3.19-.68,4.34-1.84l1.89,1.93Z" style="fill:#fff;"></path><path d="M132.34,37.09h4.15V19.06h-4.15v18.04Zm-11.75-15.03c2.74,0,4.32,2.08,4.59,4.75h-9.28c.38-2.8,2.16-4.75,4.7-4.75m-8.81,6.01v.07c-.19,4.97,3.68,9.16,8.65,9.36,.21,0,.42,0,.63,0,2.86,.09,5.6-1.16,7.4-3.38l-2.43-2.15c-1.25,1.38-3.04,2.16-4.9,2.15-2.68,.1-4.96-1.91-5.21-4.58h13.29c.03-.41,.07-.78,.07-1.16,0-5.19-2.91-9.7-8.67-9.7-5.17,0-8.84,4.24-8.84,9.39m-32.65-14.89v4.68h1.78c.14,1.78-.86,2.84-2.95,3.21l.45,1.77c3.46-.27,5.28-1.88,5.28-5.67v-4h-4.56Zm25.18,0V29.71l-12.85-16.53h-3.91v23.91h4.15V20.08l13.22,17.01h3.53V13.18h-4.14Zm27.85,3.11h4.45v-3.93h-4.46v3.93Zm8.6,20.8h4.15V12.16h-4.15v24.93Zm8.43,0h4.14V12.16h-4.15v24.93Z" style="fill:#a42135;"></path><path d="M196.04,81.79v-.07c0-1.88,1.57-3.01,4.25-3.01,1.4-.01,2.8,.23,4.11,.72v1.23c0,2.29-2.09,3.86-4.83,3.86-1.99,0-3.53-.99-3.53-2.73m-2.46-11.44l1.1,3.24c1.62-.74,3.39-1.12,5.17-1.13,2.91,0,4.49,1.37,4.49,3.93v.45c-1.57-.52-3.21-.77-4.86-.75-4.42,0-7.47,1.91-7.47,5.81v.07c0,3.62,3.02,5.57,6.41,5.57,2.26,.08,4.43-.89,5.89-2.63v2.25h4.04v-10.69c.14-2.05-.57-4.06-1.95-5.57-1.27-1.3-3.29-2.01-6-2.01-2.35-.04-4.68,.47-6.82,1.47m-67.46,2.83v-4.06h-4.15v18.03h4.15v-6.87c0-4.78,2.54-7.14,6.17-7.14h.24v-4.37c-.11,0-.22,0-.33,0-3,0-4.99,1.81-6.08,4.41m15.83-1.06c2.74,0,4.32,2.08,4.59,4.75h-9.28c.38-2.8,2.16-4.75,4.69-4.75m-8.8,6.01v.07c-.19,4.97,3.68,9.16,8.65,9.36,.21,0,.42,0,.63,0,2.86,.09,5.6-1.16,7.4-3.39l-2.43-2.15c-1.25,1.38-3.04,2.16-4.9,2.15-2.67,.1-4.96-1.91-5.21-4.58h13.29c.03-.41,.07-.79,.07-1.16,0-5.19-2.91-9.7-8.67-9.7-5.17,0-8.84,4.23-8.84,9.39m24.46-6.25v-2.77h-4.15v18.03h4.15v-10.18c0-2.8,1.68-4.47,4.08-4.47s3.87,1.61,3.87,4.4v10.25h4.15v-11.51c0-4.17-2.36-6.9-6.44-6.9-2.31-.02-4.45,1.17-5.65,3.14m19.87,0v-2.77h-4.14v18.03h4.15v-10.18c0-2.8,1.68-4.47,4.08-4.47s3.87,1.61,3.87,4.4v10.25h4.15v-11.51c0-4.17-2.36-6.9-6.44-6.9-2.31-.02-4.45,1.17-5.65,3.14m38.61,0v-2.77h-4.15v18.03h4.15v-10.18c0-2.8,1.68-4.47,4.08-4.47s3.87,1.61,3.87,4.4v10.25h4.14v-11.51c0-4.17-2.36-6.9-6.44-6.9-2.31-.02-4.45,1.17-5.65,3.14" style="fill:#a42135;"></path></svg>