<svg xmlns="http://www.w3.org/2000/svg" width="720" height="120" viewBox="0 0 720 120">
<defs>
<style><![CDATA[
  .wordmark { font-family: "Sora", system-ui, -apple-system, "Segoe UI", Roboto, Arial, sans-serif; font-weight: 700; letter-spacing: -0.01em; }
  .tech { font-family: "Sora", system-ui, -apple-system, "Segoe UI", Roboto, Arial, sans-serif; font-weight: 500; letter-spacing: 0.02em; }
]]></style>
</defs>
<g transform="translate(24, 60) scale(1.0)">
<path d="M0,30 C0,5 0,-20 24,-32" fill="none" stroke="#2D7DF6" stroke-width="10" stroke-linecap="round"/>
<path d="M18,34 C18,10 26,-10 48,-20" fill="none" stroke="#2D7DF6" stroke-width="10" stroke-linecap="round"/>
<path d="M36,34 C40,18 54,2 70,-8" fill="none" stroke="#2D7DF6" stroke-width="10" stroke-linecap="round"/>
<circle cx="24" cy="-32" r="9" fill="#2D7DF6"/>
<circle cx="48" cy="-20" r="9" fill="#2D7DF6"/>
<circle cx="70" cy="-8" r="9" fill="#2D7DF6"/>
<path d="M-10,30 a10,10 0 0 1 10,-10 h8 a10,10 0 0 1 10,10 v8 h-28z" fill="#2D7DF6" opacity="0"/>
</g>
<text x="120" y="70" class="wordmark" font-size="44" fill="#FFFFFF">DIGITAL NATIVES</text>
<text x="590" y="70" class="tech" font-size="38" fill="#FFFFFF">TECHNOLOGIES</text>
</svg>